# xmcd
#
# Track frame offsets: 
#        150
#        19145
#        33510
#        47985
#        64563
#        70140
#        79818
#        93493
#        105003
#        115953
#        131193
#        136498
#        150000
#        156335
#        166298
#        173508
#        178265
#        184930
#        209540
#        243780
#        264450
#
# Disc length: 3651 seconds
#
# Revision: 2
# Processed by: cddbd v1.5.2PL0 Copyright (c) Steve Scherf et al.
# Submitted via: ExactAudioCopy v0.95b4
#
DISCID=1a0e4115
DTITLE=Montserrat Caballe - Montserrat Caballe sings Granados
DYEAR=1994
DGENRE=Opera
TTITLE0=Desc brase el pensamiento de mi secreto cuidado
TTITLE1=Ma anica era
TTITLE2=Llorad, coraz n, que teneis raz n
TTITLE3=Mira que soy ni a, amor, d jame!
TTITLE4=No lloreis, ojuelos
TTITLE5=Iban al pinar
TTITLE6=Gracia m a
TTITLE7=La maja dolorosa N  1
TTITLE8=La maja dolorosa N  2
TTITLE9=La maja dolorosa N  3
TTITLE10=El tra la la y el punteado
TTITLE11=El mirar de la maja
TTITLE12=Callejeo
TTITLE13=Amor y odio
TTITLE14=El majo discreto
TTITLE15=El majo t mido
TTITLE16=La maja de Goya
TTITLE17=Elegia eterna
TTITLE18=Quejas, o la maja y el ruise or
TTITLE19=Can   d'amor
TTITLE20=L'ocell profeta
EXTD=
EXTT0=
EXTT1=
EXTT2=
EXTT3=
EXTT4=
EXTT5=
EXTT6=
EXTT7=
EXTT8=
EXTT9=
EXTT10=
EXTT11=
EXTT12=
EXTT13=
EXTT14=
EXTT15=
EXTT16=
EXTT17=
EXTT18=
EXTT19=
EXTT20=
PLAYORDER=
